<svg width="130" height="117" viewBox="0 0 130 117" fill="none" xmlns="http://www.w3.org/2000/svg">
<g clip-path="url(#clip0)">
<path d="M0 115V46.0479C0 45.3916 0.321983 44.7771 0.861579 44.4035L63.8616 0.788137C64.5465 0.313983 65.4535 0.313981 66.1384 0.788135L129.138 44.4035C129.678 44.7771 130 45.3916 130 46.0479V115C130 116.105 129.105 117 128 117H2C0.89543 117 0 116.105 0 115Z" fill="#F1F1F1"/>
<path d="M5.30585 46.3043L65.063 1.90222L125.274 49.4637L68.1419 83.4198L37.1244 76.3313L5.30585 46.3043Z" fill="#E6E6E6"/>
<path d="M39.7425 104.393H10.221C10.0398 104.393 9.86021 104.358 9.69267 104.288C9.52513 104.219 9.37288 104.117 9.24462 103.989C9.11636 103.86 9.01461 103.708 8.94519 103.54C8.87576 103.372 8.84003 103.192 8.84003 103.01C8.84003 102.828 8.87576 102.649 8.94519 102.481C9.01461 102.313 9.11636 102.16 9.24462 102.032C9.37288 101.903 9.52513 101.802 9.69267 101.732C9.86021 101.663 10.0398 101.627 10.221 101.627H39.7425C39.9238 101.627 40.1033 101.663 40.2708 101.732C40.4384 101.802 40.5906 101.903 40.7189 102.032C40.8472 102.16 40.9489 102.313 41.0183 102.481C41.0878 102.649 41.1235 102.828 41.1235 103.01C41.1235 103.192 41.0878 103.372 41.0183 103.54C40.9489 103.708 40.8472 103.86 40.7189 103.989C40.5906 104.117 40.4384 104.219 40.2708 104.288C40.1033 104.358 39.9238 104.393 39.7425 104.393Z" fill="#36B3C8"/>
<path d="M20.8127 98.4478H10.221C10.0398 98.4481 9.86021 98.4125 9.69267 98.3431C9.52513 98.2737 9.37288 98.1719 9.24462 98.0435C9.11636 97.915 9.01461 97.7625 8.94519 97.5946C8.87576 97.4268 8.84003 97.2468 8.84003 97.065C8.84003 96.8833 8.87576 96.7033 8.94519 96.5355C9.01461 96.3676 9.11636 96.2151 9.24462 96.0866C9.37288 95.9582 9.52513 95.8564 9.69267 95.787C9.86021 95.7176 10.0398 95.682 10.221 95.6823H20.8127C20.9939 95.682 21.1735 95.7176 21.341 95.787C21.5086 95.8564 21.6608 95.9582 21.7891 96.0866C21.9173 96.2151 22.0191 96.3676 22.0885 96.5355C22.1579 96.7033 22.1937 96.8833 22.1937 97.065C22.1937 97.2468 22.1579 97.4268 22.0885 97.5946C22.0191 97.7625 21.9173 97.915 21.7891 98.0435C21.6608 98.1719 21.5086 98.2737 21.341 98.3431C21.1735 98.4125 20.9939 98.4481 20.8127 98.4478Z" fill="#36B3C8"/>
<path d="M65.9032 71.0357C65.6788 71.0359 65.4565 70.9922 65.2488 70.9072L28.3948 55.5757V7.58573C28.3953 7.16137 28.5636 6.75453 28.8629 6.45447C29.1622 6.1544 29.568 5.9856 29.9913 5.98511H100.693C101.116 5.9856 101.522 6.1544 101.821 6.45447C102.121 6.75453 102.289 7.16137 102.289 7.58573V55.6092L102.22 55.6389L66.5774 70.8997C66.3639 70.9896 66.1347 71.0358 65.9032 71.0357Z" fill="white"/>
<path d="M65.9032 71.1498C65.6639 71.1501 65.4269 71.1036 65.2054 71.0129L28.2808 55.652V7.58568C28.2813 7.13101 28.4617 6.6951 28.7823 6.3736C29.103 6.05209 29.5378 5.87124 29.9913 5.87073H100.693C101.147 5.87124 101.581 6.05209 101.902 6.3736C102.223 6.6951 102.403 7.13101 102.404 7.58568V55.6846L66.6222 71.0047C66.3946 71.1007 66.1501 71.15 65.9032 71.1498ZM28.7369 55.3466L65.3794 70.5901C65.7211 70.7291 66.1039 70.7269 66.444 70.5838L101.947 55.3827V7.58568C101.947 7.25226 101.815 6.93261 101.58 6.69684C101.344 6.46107 101.026 6.32844 100.693 6.32805H29.9913C29.6587 6.32844 29.3399 6.46107 29.1047 6.69684C28.8696 6.93261 28.7373 7.25226 28.7369 7.58568L28.7369 55.3466Z" fill="#F3F9F6"/>
<path d="M128.859 44.7432C128.813 44.7432 128.767 44.7289 128.729 44.7022L65.6545 0.661306C65.4625 0.527906 65.2344 0.456614 65.0009 0.457013C64.7673 0.457413 64.5395 0.529483 64.348 0.663539L1.72748 44.7017C1.67795 44.7366 1.61665 44.7502 1.55706 44.7398C1.49747 44.7293 1.44448 44.6955 1.40974 44.6458C1.37499 44.5962 1.36135 44.5347 1.37181 44.475C1.38227 44.4152 1.41597 44.3621 1.4655 44.3273L64.086 0.289063C64.3542 0.101412 64.6731 0.000540925 65.0001 2.16944e-06C65.3271 -0.000536586 65.6464 0.0992821 65.9152 0.286048L128.99 44.3268C129.03 44.3546 129.06 44.3945 129.075 44.4406C129.091 44.4867 129.092 44.5366 129.077 44.583C129.063 44.6295 129.034 44.6701 128.994 44.6989C128.955 44.7277 128.908 44.7432 128.859 44.7432Z" fill="#F3F9F6"/>
<path d="M128.404 44.2859H128.358L66.3525 70.8311C66.2125 70.8901 66.0623 70.9209 65.9105 70.9217C65.7586 70.9225 65.6081 70.8933 65.4675 70.8357L1.68313 44.3042L1.64215 44.2859H1.59649C1.17322 44.2863 0.767417 44.4551 0.468119 44.7552C0.16882 45.0553 0.000469654 45.4621 0 45.8865V115.399C0.000470256 115.824 0.16882 116.231 0.468119 116.531C0.767417 116.831 1.17322 117 1.59649 117H128.404C128.827 117 129.233 116.831 129.532 116.531C129.831 116.231 130 115.824 130 115.399V45.8865C130 45.4621 129.831 45.0553 129.532 44.7552C129.233 44.4551 128.827 44.2863 128.404 44.2859ZM129.544 115.399C129.544 115.703 129.424 115.993 129.21 116.208C128.996 116.422 128.706 116.543 128.404 116.543H1.59649C1.29409 116.543 1.00411 116.422 0.790276 116.208C0.576445 115.993 0.456261 115.703 0.45614 115.399V45.8865C0.456554 45.5908 0.570942 45.3068 0.775389 45.0937C0.979835 44.8806 1.25851 44.755 1.55317 44.7432L65.292 71.2587C65.6902 71.4211 66.1363 71.4186 66.5327 71.2518L128.449 44.7432C128.743 44.7559 129.021 44.8819 129.225 45.0948C129.429 45.3078 129.543 45.5913 129.544 45.8865V115.399Z" fill="#F3F9F6"/>
<path d="M65.5348 57.4274C64.1743 57.43 62.8498 56.9889 61.7612 56.1707L61.6937 56.1199L47.4825 45.2111C46.8243 44.7055 46.2719 44.0749 45.8568 43.3553C45.4418 42.6356 45.1721 41.8411 45.0633 41.017C44.9545 40.1929 45.0087 39.3554 45.2227 38.5523C45.4367 37.7492 45.8064 36.9962 46.3107 36.3364C46.815 35.6765 47.444 35.1227 48.1617 34.7065C48.8795 34.2904 49.672 34.0201 50.4939 33.911C51.3159 33.8019 52.1512 33.8562 52.9523 34.0708C53.7533 34.2853 54.5043 34.656 55.1625 35.1616L64.3675 42.2381L86.1203 13.7958C86.6248 13.1361 87.254 12.5825 87.9719 12.1666C88.6898 11.7507 89.4824 11.4806 90.3044 11.3718C91.1264 11.263 91.9617 11.3176 92.7627 11.5325C93.5636 11.7474 94.3145 12.1184 94.9725 12.6242L94.8372 12.8083L94.976 12.6269C96.3032 13.6496 97.1716 15.1584 97.3907 16.8222C97.6098 18.486 97.1616 20.1691 96.1445 21.502L70.5579 54.9571C69.9662 55.728 69.2052 56.3519 68.3341 56.7803C67.463 57.2087 66.5051 57.4301 65.5348 57.4274Z" fill="#36B3C8"/>
</g>
<defs>
<clipPath id="clip0">
<rect width="130" height="117" fill="white"/>
</clipPath>
</defs>
</svg>
