<svg width="40" height="40" viewBox="0 0 40 40" fill="none" xmlns="http://www.w3.org/2000/svg">
<path d="M19.9993 11.8845C18.9336 11.8845 17.8784 12.0944 16.8938 12.5022C15.9092 12.9101 15.0147 13.5078 14.2611 14.2613C13.5076 15.0149 12.9098 15.9095 12.502 16.894C12.0942 17.8786 11.8843 18.9338 11.8843 19.9995C11.8843 21.0652 12.0942 22.1204 12.502 23.105C12.9098 24.0896 13.5076 24.9841 14.2611 25.7377C15.0147 26.4912 15.9092 27.089 16.8938 27.4968C17.8784 27.9046 18.9336 28.1145 19.9993 28.1145C22.1515 28.1145 24.2156 27.2596 25.7375 25.7377C27.2593 24.2158 28.1143 22.1518 28.1143 19.9995C28.1143 17.8473 27.2593 15.7832 25.7375 14.2613C24.2156 12.7395 22.1515 11.8845 19.9993 11.8845ZM14.3843 19.9995C14.3843 18.5103 14.9759 17.0821 16.0289 16.0291C17.0819 14.9761 18.5101 14.3845 19.9993 14.3845C21.4885 14.3845 22.9167 14.9761 23.9697 16.0291C25.0227 17.0821 25.6143 18.5103 25.6143 19.9995C25.6143 21.4887 25.0227 22.9169 23.9697 23.9699C22.9167 25.0229 21.4885 25.6145 19.9993 25.6145C18.5101 25.6145 17.0819 25.0229 16.0289 23.9699C14.9759 22.9169 14.3843 21.4887 14.3843 19.9995Z" fill="#36B3C8"/>
<path d="M24.4888 3.35625C23.1712 -1.11875 16.8263 -1.11875 15.5087 3.35625L15.2738 4.15375C15.1817 4.46613 15.021 4.75396 14.8033 4.99615C14.5856 5.23833 14.3165 5.42873 14.0156 5.55338C13.7148 5.67803 13.3898 5.73378 13.0646 5.71654C12.7394 5.69931 12.4222 5.60951 12.1362 5.45375L11.4062 5.05375C7.30625 2.82375 2.82375 7.30875 5.05625 11.4062L5.45375 12.1362C5.60951 12.4222 5.69931 12.7394 5.71654 13.0646C5.73378 13.3898 5.67803 13.7148 5.55338 14.0156C5.42873 14.3165 5.23833 14.5856 4.99615 14.8033C4.75396 15.021 4.46613 15.1817 4.15375 15.2738L3.35625 15.5087C-1.11875 16.8263 -1.11875 23.1712 3.35625 24.4888L4.15375 24.7238C4.46613 24.8158 4.75396 24.9765 4.99615 25.1942C5.23833 25.4119 5.42873 25.681 5.55338 25.9819C5.67803 26.2827 5.73378 26.6077 5.71654 26.9329C5.69931 27.2581 5.60951 27.5753 5.45375 27.8613L5.05375 28.5913C2.82375 32.6912 7.30625 37.1763 11.4062 34.9412L12.1362 34.5438C12.4222 34.388 12.7394 34.2982 13.0646 34.281C13.3898 34.2637 13.7148 34.3195 14.0156 34.4441C14.3165 34.5688 14.5856 34.7592 14.8033 35.0014C15.021 35.2435 15.1817 35.5314 15.2738 35.8438L15.5087 36.6413C16.8263 41.1162 23.1712 41.1162 24.4888 36.6413L24.7238 35.8438C24.8158 35.5314 24.9765 35.2435 25.1942 35.0014C25.4119 34.7592 25.681 34.5688 25.9819 34.4441C26.2827 34.3195 26.6077 34.2637 26.9329 34.281C27.2581 34.2982 27.5753 34.388 27.8613 34.5438L28.5913 34.9437C32.6912 37.1763 37.1763 32.6888 34.9412 28.5913L34.5438 27.8613C34.388 27.5753 34.2982 27.2581 34.281 26.9329C34.2637 26.6077 34.3195 26.2827 34.4441 25.9819C34.5688 25.681 34.7592 25.4119 35.0014 25.1942C35.2435 24.9765 35.5314 24.8158 35.8438 24.7238L36.6413 24.4888C41.1162 23.1712 41.1162 16.8263 36.6413 15.5087L35.8438 15.2738C35.5314 15.1817 35.2435 15.021 35.0014 14.8033C34.7592 14.5856 34.5688 14.3165 34.4441 14.0156C34.3195 13.7148 34.2637 13.3898 34.281 13.0646C34.2982 12.7394 34.388 12.4222 34.5438 12.1362L34.9437 11.4062C37.1763 7.30625 32.6888 2.82375 28.5913 5.05625L27.8613 5.45375C27.5753 5.60951 27.2581 5.69931 26.9329 5.71654C26.6077 5.73378 26.2827 5.67803 25.9819 5.55338C25.681 5.42873 25.4119 5.23833 25.1942 4.99615C24.9765 4.75396 24.8158 4.46613 24.7238 4.15375L24.4888 3.35625ZM17.9062 4.06375C18.5212 1.97625 21.4762 1.97625 22.0913 4.06375L22.3263 4.86125C22.5238 5.53146 22.8688 6.14897 23.3361 6.6685C23.8033 7.18803 24.3809 7.59641 25.0264 7.8637C25.672 8.13099 26.3692 8.25042 27.067 8.21322C27.7647 8.17603 28.4452 7.98316 29.0588 7.64875L29.7863 7.24875C31.6963 6.21125 33.7863 8.29875 32.7463 10.2112L32.3488 10.9412C32.0148 11.5548 31.8224 12.2353 31.7857 12.9329C31.7489 13.6305 31.8686 14.3274 32.1361 14.9727C32.4036 15.618 32.8121 16.1953 33.3317 16.6622C33.8512 17.1291 34.4687 17.4739 35.1387 17.6712L35.9338 17.9062C38.0212 18.5212 38.0212 21.4762 35.9338 22.0913L35.1363 22.3263C34.466 22.5238 33.8485 22.8688 33.329 23.3361C32.8095 23.8033 32.4011 24.3809 32.1338 25.0264C31.8665 25.672 31.7471 26.3692 31.7843 27.067C31.8215 27.7647 32.0143 28.4452 32.3488 29.0588L32.7488 29.7863C33.7863 31.6963 31.6988 33.7863 29.7863 32.7463L29.0588 32.3488C28.4451 32.0144 27.7644 31.8216 27.0665 31.7846C26.3686 31.7475 25.6713 31.8672 25.0257 32.1347C24.3801 32.4023 23.8026 32.8109 23.3355 33.3307C22.8683 33.8505 22.5235 34.4683 22.3263 35.1387L22.0913 35.9338C21.4762 38.0212 18.5212 38.0212 17.9062 35.9338L17.6712 35.1363C17.4736 34.4664 17.1286 33.8492 16.6616 33.3299C16.1945 32.8107 15.6172 32.4025 14.972 32.1352C14.3267 31.868 13.6299 31.7484 12.9324 31.7854C12.235 31.8223 11.5547 32.0148 10.9412 32.3488L10.2112 32.7488C8.30125 33.7863 6.21125 31.6988 7.25125 29.7863L7.64875 29.0588C7.98363 28.4452 8.17688 27.7644 8.21432 27.0663C8.25176 26.3683 8.13243 25.6708 7.86511 25.0249C7.59778 24.379 7.18924 23.8011 6.66945 23.3337C6.14966 22.8663 5.53181 22.5212 4.86125 22.3238L4.06375 22.0888C1.97625 21.4738 1.97625 18.5187 4.06375 17.9037L4.86125 17.6687C5.53077 17.471 6.1476 17.1261 6.66661 16.6592C7.18561 16.1923 7.59366 15.6153 7.86088 14.9704C8.12811 14.3255 8.24774 13.6289 8.21104 12.9318C8.17434 12.2347 7.98222 11.5546 7.64875 10.9412L7.24875 10.2112C6.21125 8.30125 8.29875 6.21125 10.2112 7.25125L10.9412 7.64875C11.5547 7.98269 12.235 8.17518 12.9324 8.21213C13.6299 8.24908 14.3267 8.12955 14.972 7.86229C15.6172 7.59503 16.1945 7.18682 16.6616 6.66755C17.1286 6.14828 17.4736 5.53111 17.6712 4.86125L17.9062 4.06375Z" fill="#36B3C8"/>
</svg>
